<svg id="Layer_1" enable-background="new 0 0 512 512" height="512" viewBox="0 0 512 512" width="512" xmlns="http://www.w3.org/2000/svg"><g><path d="m424.316 445.018c47.218-44.66 76.685-107.896 76.685-178.019 0-135.31-109.691-245.001-245.001-245.001s-245.001 109.691-245.001 245.001 109.691 245.001 245.001 245.001c10.603 0 21.049-.675 31.297-1.981z" fill="#ff4155"/><path d="m396.836 365.563c-2.15-7.901-2.908-16.116-2.24-24.277l4.001-37.685c1.953-23.645-1.65-47.335-12.118-68.626-27.045-55.013-20.84-59.005-21.681-113.604 0-11.153-9.042-20.196-20.196-20.196-11.154 0-20.196 9.042-20.196 20.196 0 222.032.413 205.739-.956 212.249v29.074c0 24.496-19.929 44.426-44.425 44.426-16.269 0-72.374 0-110.552 0 16.984 23.62 40.219 42.114 67.183 53.313.167.069.334.139.501.21 20.833 8.799 44.094 26.357 47.981 48.142l.376 1.556c54.861-6.36 104.192-30.834 141.86-67.297z" fill="#f9ba8f"/><path d="m93.463 101.881-6.151-5.699c-9.483-8.786-24.43-8.216-33.216 1.266-8.786 9.483-8.216 24.43 1.267 33.216l38.101 35.303v-64.086z" fill="#f9ba8f"/><path d="m67.863 112.997c-5.817-5.39-8.264-13.096-7.271-20.439-2.373 1.215-4.585 2.829-6.496 4.89-8.786 9.483-8.216 24.43 1.267 33.216l38.101 35.303v-29.249z" fill="#fcad6d"/><g><path d="m398.676 370.388c-8.342 57.526-57.852 101.719-117.69 101.719-10.331 0-20.353-1.319-29.909-3.794 15.843 9.687 30.095 23.845 33.061 40.471l.376 1.556c54.861-6.36 104.191-30.834 141.86-67.297z" fill="#fd995b"/></g><g><path d="m289.615 408.075h-162.235c-19.184 0-34.792-15.608-34.792-34.793v-338.489c0-19.185 15.607-34.793 34.792-34.793h162.235c19.184 0 34.792 15.608 34.792 34.793v338.49c0 19.184-15.608 34.792-34.792 34.792z" fill="#2a428c"/></g><path d="m127.38 0c-19.184 0-34.792 15.608-34.792 34.792v338.49c0 19.185 15.608 34.793 34.792 34.793h60.71c-10.199-10.2 0-21.646 0-21.646-25.243-36.469 1.412-72.433 1.412-72.433l11.175-221.662c-29.99-10.563-19.547-52.836-19.547-52.836-7.468-7.468-1.737-14.565-1.737-14.565v-12.026c-6.159-3.771-3.321-11.392-2.679-12.907z" fill="#142766"/><g><path d="m182.867 24.933h-3.474c-3.321 0-6.013-2.692-6.013-6.013s2.692-6.013 6.013-6.013h3.474c3.321 0 6.013 2.692 6.013 6.013s-2.692 6.013-6.013 6.013z" fill="#3c58a0"/></g><g><path d="m236.771 24.933h-33.382c-3.321 0-6.013-2.692-6.013-6.013s2.692-6.013 6.013-6.013h33.382c3.321 0 6.013 2.692 6.013 6.013s-2.692 6.013-6.013 6.013z" fill="#3c58a0"/></g><path d="m289.615 21.646h-24.383c-4.546 0-8.23 3.685-8.23 8.23 0 5.291-4.329 9.621-9.621 9.621h-77.767c-5.291 0-9.621-4.329-9.621-9.621 0-4.545-3.685-8.23-8.23-8.23h-24.383c-7.26 0-13.146 5.886-13.146 13.146v338.49c0 7.26 5.885 13.146 13.146 13.146h162.235c7.26 0 13.146-5.886 13.146-13.146 0-34.819 0-329.197 0-338.49 0-7.26-5.886-13.146-13.146-13.146z" fill="#e9efff"/><path d="m169.614 39.497c-5.291 0-9.621-4.329-9.621-9.621 0-4.546-3.685-8.23-8.23-8.23h-24.383c-7.26 0-13.146 5.885-13.146 13.146v338.49c0 7.26 5.885 13.146 13.146 13.146h60.71c-25.243-36.469 1.412-72.433 1.412-72.433l11.175-221.662c-29.99-10.563-19.547-52.836-19.547-52.836h-11.516z" fill="#bec8f7"/><g><path d="m247.025 320.648c48.796 0 91.503-33.266 91.503-33.266 19.448-21.725 31.278-50.408 31.278-81.857 0-67.81-54.971-122.781-122.781-122.781s-122.781 54.971-122.781 122.781c0 31.449 11.83 60.132 31.275 81.855 0-.001 42.71 33.268 91.506 33.268z" fill="#73c3f9"/><path d="m285.26 220.063s-17.958-103.042-31.985-113.277c-13.472-9.83-3.142-22.919-2.301-23.943-1.314-.041-2.624-.099-3.948-.099-67.811 0-122.781 54.971-122.781 122.781 0 31.449 11.83 60.132 31.275 81.855 0 0 42.71 33.269 91.506 33.269s91.503-33.266 91.503-33.266c11.737-13.112 20.673-28.769 25.935-46.029-42.804 18.875-79.204-21.291-79.204-21.291z" fill="#4fabf7"/><g><path d="m214.197 282.685c9.366 7.273 20.925 11.224 32.829 11.224s23.462-3.95 32.828-11.224c4.348-3.376 8.876-7.534 13.249-12.425-2.524-.812-5.09-1.56-7.72-2.219-1.592-.398-2.991-1.356-3.894-2.631-4.165-5.875-5.318-14.957-5.545-21.544-2.921 3.403-5.987 6.248-8.916 8.523-11.748 9.123-28.273 9.111-40.005 0-2.929-2.275-5.995-5.12-8.916-8.523-.232 6.733-1.431 16.074-5.825 21.931-.75.999-1.905 1.816-3.29 2.159-2.735.677-5.412 1.451-8.046 2.301 4.373 4.893 8.903 9.051 13.251 12.428z" fill="#fcad6d"/></g><path d="m246.866 259.221c-7.015-.034-14.02-2.309-19.844-6.832-2.929-2.275-5.994-5.12-8.915-8.523-.233 6.733-1.431 16.074-5.826 21.931-.75 1-1.905 1.816-3.29 2.16-2.735.677-5.412 1.451-8.046 2.301 4.374 4.892 8.903 9.051 13.251 12.428 5.276 4.097 11.262 7.097 17.6 8.973 10.086-10.153 13.758-23.433 15.07-32.438z" fill="#fd995b"/><path d="m327.767 285.345c-3.731-.305-5.717-1.753-10.115-4.233-8.409-4.742-17.096-8.598-26.458-11.443-4.3 4.887-8.779 8.999-13.069 12.33-8.873 6.891-19.822 10.633-31.099 10.633s-22.226-3.742-31.099-10.633c-4.289-3.331-8.768-7.443-13.068-12.329-9.335 2.842-18.075 6.714-26.459 11.442-4.398 2.48-6.383 3.928-10.115 4.233-3.926.321-7.503 1.021-10.765 2.034 22.482 25.116 55.146 40.926 91.506 40.926 36.361 0 69.024-15.811 91.506-40.926-3.262-1.013-6.839-1.713-10.765-2.034z" fill="#3c58a0"/><g><g><path d="m237.354 107.041c-29.044 3.957-31.804 20.424-31.817 26.466-.003 1.267-.705 2.441-1.844 2.995-15.108 7.349-6.962 42.77-6.962 42.77 1.517.101 3.793 1.403 4.977 1.977.29-1.805.763-3.582 1.432-5.299.509-1.309 1.146-2.631 1.943-3.88 1.382-2.167 2.011-4.725 1.823-7.281-.543-7.389-.969-21.263 8.785-25.651 8.263-3.718 18.4-1.565 24.864.584 4.198 1.396 8.745 1.396 12.943 0 6.464-2.15 16.6-4.303 24.864-.584 9.726 4.376 9.326 18.179 8.79 25.588-.187 2.576.426 5.159 1.818 7.344.822 1.289 1.474 2.657 1.992 4.007.643 1.678 1.101 3.412 1.384 5.173 1.493-.723 4.314-2.199 6.14-1.941.224-7.745.938-16.095.938-16.095 8.605-42.154-30.798-60.434-62.07-56.173z" fill="#2a428c"/><path d="m237.353 107.041c-29.044 3.957-31.804 20.424-31.817 26.466-.003 1.267-.705 2.441-1.844 2.995-15.108 7.349-6.962 42.77-6.962 42.77 1.517.101 3.793 1.403 4.977 1.977.29-1.805.763-3.582 1.432-5.3.509-1.309 1.146-2.631 1.943-3.88 1.382-2.167 2.011-4.724 1.823-7.281-.543-7.39-.969-21.263 8.785-25.651 8.263-3.718 18.4-1.565 24.864.584 1.768.588 3.599.913 5.439 1.006-.282-.484-.583-.964-.92-1.437-12.46-17.513 4.86-30.274 8.202-32.504-5.36-.534-10.752-.449-15.922.255z" fill="#1c2e7a"/></g><path d="m301.06 180.315c-2.262-2.073-6.768-1.022-8.716.247.427 2.658.451 5.377.082 8.062l-2.299 16.745c0 1.35-.043 2.674-.121 3.975 5.606 1.691 8.391-3.342 8.86-6.796.202-1.487.532-2.952.99-4.382 1.492-4.657 6.872-12.657 1.204-17.851z" fill="#fcad6d"/><path d="m192.99 180.315c2.262-2.073 6.768-1.022 8.716.247-.427 2.658-.451 5.377-.082 8.062l2.299 16.745c0 1.35.043 2.674.121 3.975-5.606 1.691-8.391-3.342-8.86-6.796-.202-1.487-.532-2.952-.99-4.382-1.492-4.657-6.871-12.657-1.204-17.851z" fill="#fd995b"/><path d="m291.648 175.389c-.517-1.35-1.17-2.717-1.992-4.007-1.392-2.184-2.005-4.768-1.818-7.344.537-7.409.249-21.899-9.477-26.276-8.263-3.718-18.399-1.565-24.863.584-4.198 1.396-8.747 1.396-12.945 0-6.464-2.149-16.6-4.302-24.863-.584-9.754 4.389-10.016 18.95-9.473 26.339.188 2.556-.441 5.113-1.823 7.281-.796 1.249-1.433 2.572-1.943 3.88-1.653 4.245-2.134 8.85-1.515 13.358l2.299 16.749c0 24.079 12.854 40.445 23.787 48.935 5.707 4.432 12.749 6.839 20.003 6.839 7.253 0 14.296-2.407 20.003-6.839 10.933-8.49 23.787-24.856 23.787-48.935l2.299-16.745c.613-4.464.148-9.023-1.466-13.235z" fill="#f9ba8f"/><g><path d="m258.954 254.304c-10.933-8.49-23.787-24.856-23.787-48.935l-2.299-16.749c-.619-4.508-.137-9.113 1.515-13.358.509-1.309 1.146-2.631 1.943-3.88 1.382-2.168 2.011-4.725 1.823-7.281-.491-6.681-.322-19.224 6.924-24.811-1.529-.146-3.047-.454-4.52-.944-6.464-2.149-16.6-4.302-24.863-.584-9.754 4.389-10.016 18.95-9.473 26.339.188 2.556-.441 5.113-1.823 7.281-.796 1.249-1.433 2.572-1.943 3.88-1.653 4.245-2.134 8.85-1.515 13.358l2.299 16.749c0 24.079 12.854 40.445 23.787 48.935 5.707 4.432 12.749 6.839 20.003 6.839 5.624 0 11.119-1.453 15.966-4.17-1.403-.787-2.755-1.674-4.037-2.669z" fill="#fcad6d"/></g></g><path d="m215.926 281.999c-4.289-3.33-8.768-7.443-13.069-12.329-9.335 2.843-18.074 6.714-26.459 11.442-4.398 2.479-6.383 3.927-10.115 4.232-3.926.322-7.502 1.021-10.765 2.035 9.627 10.754 21.132 19.785 33.983 26.617 4.802-3.953 11.52-7.545 20.935-10.131 9.855-2.707 17.093-7.558 22.419-13.288-6.098-1.77-11.859-4.641-16.929-8.578z" fill="#2a428c"/></g><path d="m391.592 91.063v-9.402c0-18.718-15.174-33.891-33.891-33.891-18.717 0-33.891 15.174-33.891 33.891v9.402c0 16.644-5.631 32.799-15.978 45.836h99.739c-10.347-13.038-15.979-29.192-15.979-45.836z" fill="#ffdd40"/><path d="m356 74.23c0-13.873 10.301-19.775 18.059-22.254-4.85-2.679-10.425-4.207-16.358-4.207-18.718 0-33.891 15.174-33.891 33.891v9.402c0 16.644-5.631 32.798-15.978 45.835h99.739c-4.068-5.125-7.395-10.738-9.949-16.667h-28.988c-6.977 0-12.633-5.656-12.633-12.633v-33.367z" fill="#ffb332"/><path d="m371.322 174.355c-4.343 7.523-13.962 10.1-21.485 5.757s-10.1-13.962-5.757-21.485 13.962-10.1 21.485-5.757 10.1 13.962 5.757 21.485z" fill="#ffdd40"/><g><path d="m407.57 153.18h-99.739c-4.955 0-8.972-4.017-8.972-8.972s4.017-8.972 8.972-8.972h99.739c4.955 0 8.972 4.017 8.972 8.972s-4.016 8.972-8.972 8.972z" fill="#fcf2c8"/></g><path d="m344.526 144.208c0-4.955 4.017-8.972 8.972-8.972h-45.667c-4.955 0-8.972 4.017-8.972 8.972s4.017 8.972 8.972 8.972h45.667c-4.955 0-8.972-4.017-8.972-8.972z" fill="#ffe98d"/><path d="m127.669 225.842c-7.731 8.343-20.761 8.84-29.104 1.109l-34.497-31.964c-8.343-7.73-8.84-20.761-1.109-29.104 7.731-8.343 20.761-8.84 29.104-1.109l34.497 31.964c8.343 7.731 8.839 20.761 1.109 29.104z" fill="#f9ba8f"/><path d="m112.757 212.422-34.497-31.964c-5.77-5.346-7.781-13.226-5.92-20.338-3.478 1.004-6.741 2.915-9.381 5.764-7.731 8.343-7.234 21.374 1.109 29.104l34.497 31.964c8.343 7.73 21.373 7.234 29.104-1.109 2.384-2.573 3.981-5.594 4.811-8.766-6.708 1.935-14.229.436-19.723-4.655z" fill="#fcad6d"/><g><path d="m127.669 338.191c-7.731 8.343-20.761 8.84-29.104 1.109l-34.497-31.964c-8.343-7.73-8.84-20.761-1.109-29.104 7.731-8.343 20.761-8.84 29.104-1.109l34.497 31.964c8.343 7.73 8.839 20.761 1.109 29.104z" fill="#f9ba8f"/></g><path d="m112.757 324.77-34.497-31.964c-5.77-5.346-7.781-13.226-5.92-20.338-3.478 1.004-6.741 2.915-9.381 5.764-7.731 8.343-7.234 21.374 1.109 29.104l34.497 31.964c8.343 7.73 21.373 7.234 29.104-1.109 2.384-2.573 3.981-5.594 4.811-8.766-6.708 1.936-14.229.436-19.723-4.655z" fill="#fcad6d"/><path d="m127.669 282.017c-7.731 8.343-20.761 8.84-29.104 1.109l-34.497-31.964c-8.343-7.73-8.84-20.761-1.109-29.104 7.731-8.343 20.761-8.84 29.104-1.109l34.497 31.964c8.343 7.73 8.839 20.76 1.109 29.104z" fill="#f9ba8f"/><path d="m112.757 268.596-34.497-31.964c-5.77-5.346-7.781-13.226-5.92-20.338-3.478 1.004-6.742 2.915-9.381 5.764-7.731 8.343-7.234 21.373 1.109 29.104l34.497 31.964c8.343 7.731 21.373 7.234 29.104-1.109 2.384-2.573 3.981-5.594 4.811-8.766-6.708 1.936-14.229.436-19.723-4.655z" fill="#fcad6d"/><g><path d="m393.834 38.826c-3.745-1.768-5.348-6.239-3.579-9.983l4.3-9.107c1.768-3.746 6.238-5.349 9.984-3.58 3.746 1.768 5.348 6.239 3.579 9.983l-4.3 9.107c-1.769 3.747-6.24 5.349-9.984 3.58z" fill="#ffdd40"/></g><g><path d="m421.946 96.141-9.107-4.3c-3.746-1.769-5.348-6.239-3.579-9.984 1.769-3.746 6.238-5.349 9.984-3.579l9.107 4.3c3.746 1.769 5.348 6.239 3.579 9.985-1.77 3.745-6.239 5.347-9.984 3.578z" fill="#ffdd40"/></g><g><path d="m429.53 58.277-9.479 3.399c-3.899 1.397-8.193-.63-9.591-4.529-1.397-3.898.63-8.184 4.529-9.591l9.479-3.399c3.899-1.397 8.193.63 9.591 4.529 1.387 3.871-.596 8.174-4.529 9.591z" fill="#ffdd40"/></g><circle cx="363.276" cy="164.18" fill="#ffe98d" r="5.575"/></g></svg>