<svg height="461pt" viewBox="0 0 461.58643 461" width="461pt" xmlns="http://www.w3.org/2000/svg"><path d="m448.480469 448.769531c-12.136719 12.136719-31.816407 12.136719-43.953125 0l-103.433594-103.433593c-3.886719-3.882813-3.886719-10.183594 0-14.066407l29.886719-29.886719c3.882812-3.882812 10.183593-3.882812 14.0625 0l103.433593 103.433594c12.140626 12.136719 12.140626 31.816406.003907 43.953125zm0 0" fill="#a4c9ff"/><path d="m330.648438 301.71875-33.222657-33.226562c-4.179687 5.402343-8.699219 10.621093-13.652343 15.570312-4.949219 4.953125-10.167969 9.472656-15.570313 13.652344l33.226563 33.222656zm0 0" fill="#ffea92"/><path d="m283.257812 52.445312c-64-64.003906-167.90625-64.234374-231.621093-.519531-63.714844 63.714844-63.484375 167.621094.519531 231.621094 64 64 167.902344 64.234375 231.617188.515625 63.71875-63.714844 63.484374-167.617188-.515626-231.617188zm-31.511718 199.585938c-22.3125 22.308594-52.078125 34.554688-83.816406 34.476562-31.714844-.078124-61.507813-12.449218-83.898438-34.835937-46.339844-46.339844-46.503906-121.578125-.363281-167.714844 22.304687-22.308593 52.074219-34.554687 83.8125-34.476562 31.714843.078125 61.511719 12.449219 83.898437 34.839843 22.394532 22.394532 34.765625 52.199219 34.839844 83.921876.070312 31.730468-12.171875 61.484374-34.472656 83.789062zm0 0" fill="#f9a7a7"/><path d="m426.503906 461.875c-9.371094 0-18.179687-3.648438-24.804687-10.277344l-103.429688-103.433594c-5.4375-5.4375-5.4375-14.285156 0-19.71875l29.886719-29.886718c2.632812-2.636719 6.136719-4.085938 9.859375-4.085938 3.726563 0 7.230469 1.449219 9.863281 4.085938l103.429688 103.433594c6.628906 6.625 10.277344 15.433593 10.277344 24.804687 0 9.367187-3.648438 18.175781-10.277344 24.800781-6.625 6.625-15.433594 10.277344-24.804688 10.277344zm-88.488281-159.40625c-1.589844 0-3.082031.621094-4.207031 1.742188l-29.886719 29.886718c-2.316406 2.316406-2.316406 6.089844 0 8.410156l103.433594 103.429688c5.113281 5.117188 11.914062 7.933594 19.148437 7.933594 7.230469 0 14.03125-2.816406 19.148438-7.933594 5.113281-5.113281 7.929687-11.914062 7.929687-19.144531 0-7.234375-2.816406-14.035157-7.929687-19.148438l-103.4375-103.433593c-1.117188-1.121094-2.613282-1.742188-4.199219-1.742188zm0 0" fill="#3762cc"/><path d="m301.429688 334.9375c-1.023438 0-2.046876-.390625-2.828126-1.171875l-33.226562-33.222656c-.8125-.8125-1.234375-1.933594-1.164062-3.082031.074218-1.144532.636718-2.207032 1.546874-2.90625 5.503907-4.265626 10.617188-8.746094 15.1875-13.316407 4.578126-4.574219 9.054688-9.6875 13.316407-15.191406.703125-.910156 1.761719-1.472656 2.910156-1.542969 1.160156-.074218 2.269531.351563 3.082031 1.164063l33.222656 33.222656c.75.75 1.171876 1.769531 1.171876 2.828125 0 1.0625-.421876 2.078125-1.171876 2.828125l-29.21875 29.21875c-.78125.78125-1.804687 1.171875-2.828124 1.171875zm-27.226563-36.882812 27.226563 27.226562 23.5625-23.5625-27.226563-27.226562c-3.609375 4.433593-7.351563 8.589843-11.164063 12.398437-3.808593 3.8125-7.964843 7.554687-12.398437 11.164063zm0 0" fill="#3762cc"/><path d="m168.449219 335.699219c-.128907 0-.253907 0-.386719 0-44.863281-.101563-87.03125-17.617188-118.734375-49.324219-31.710937-31.707031-49.226563-73.875-49.328125-118.734375-.0976562-44.871094 17.234375-86.96875 48.804688-118.542969 65.277343-65.273437 171.71875-65.042968 237.28125.519532 31.707031 31.707031 49.222656 73.875 49.324218 118.734374.097656 44.871094-17.234375 86.96875-48.808594 118.542969-31.480468 31.480469-73.429687 48.804688-118.152343 48.804688zm-1.480469-327.410157c-40.792969 0-81.519531 15.476563-112.503906 46.464844-30.058594 30.058594-46.558594 70.140625-46.464844 112.867188.097656 42.730468 16.78125 82.894531 46.984375 113.097656 30.199219 30.199219 70.363281 46.882812 113.097656 46.980469h.367188c42.589843 0 82.527343-16.492188 112.5-46.460938 30.058593-30.058593 46.558593-70.140625 46.460937-112.867187-.09375-42.734375-16.78125-82.898438-46.980468-113.101563-31.3125-31.308593-72.421876-46.980469-113.460938-46.980469zm1.253906 282.21875c-.101562 0-.203125 0-.304687 0-32.78125-.078124-63.574219-12.867187-86.714844-36.007812-23.164063-23.164062-35.960937-53.972656-36.03125-86.753906-.070313-32.785156 12.597656-63.542969 35.667969-86.617188 22.992187-22.996094 53.648437-35.648437 86.347656-35.648437h.304688c32.777343.078125 63.574218 12.867187 86.71875 36.011719 23.148437 23.148437 35.933593 53.953124 36.007812 86.738281.074219 32.800781-12.585938 63.566406-35.648438 86.625-22.992187 23-53.652343 35.652343-86.347656 35.652343zm-1.035156-237.027343c-30.5625 0-59.207031 11.820312-80.691406 33.304687-21.554688 21.554688-33.390625 50.304688-33.324219 80.945313.066406 30.648437 12.027344 59.453125 33.6875 81.113281 21.632813 21.632812 50.425781 33.589844 81.078125 33.664062h.28125c30.5625.003907 59.210938-11.820312 80.695312-33.304687 21.542969-21.542969 33.375-50.292969 33.304688-80.953125-.066406-30.65625-12.023438-59.457031-33.667969-81.101562-21.636719-21.636719-50.433593-33.59375-81.082031-33.667969-.089844 0-.1875 0-.28125 0zm0 0" fill="#3762cc"/><path d="m209.890625 175.714844c8.773437-9.582032 14.128906-22.347656 14.128906-36.363282 0-29.753906-24.117187-53.871093-53.871093-53.871093-29.753907 0-53.867188 24.121093-53.867188 53.871093 0 14.015626 5.355469 26.777344 14.128906 36.363282h-.140625c8.90625 10.546875 14.289063 24.167968 14.289063 39.054687 0 .902344-.027344 1.800781-.066406 2.695313h51.308593c-.039062-.894532-.066406-1.792969-.066406-2.695313 0-14.886719 5.382813-28.507812 14.292969-39.054687zm0 0" fill="#ffea94"/><path d="m208.808594 83.429688.222656.222656c3.09375 3.09375 8.113281 3.09375 11.207031 0l17.363281-17.363282c3.09375-3.09375 3.09375-8.113281 0-11.207031l-.222656-.21875c-3.09375-3.097656-8.113281-3.097656-11.207031 0l-17.363281 17.359375c-3.09375 3.097656-3.09375 8.113282 0 11.207032zm0 0" fill="#ffe164"/><path d="m169.078125 67.695312h-.292969c-4.378906 0-7.933594-3.554687-7.933594-7.9375v-24.640624c0-4.382813 3.554688-7.933594 7.933594-7.933594h.292969c4.382813 0 7.933594 3.550781 7.933594 7.933594v24.640624c0 4.382813-3.550781 7.9375-7.933594 7.9375zm0 0" fill="#ffe164"/><path d="m129.730469 83.429688-.222657.222656c-3.09375 3.09375-8.113281 3.09375-11.207031 0l-17.359375-17.363282c-3.09375-3.09375-3.09375-8.113281 0-11.207031l.222656-.21875c3.09375-3.097656 8.109376-3.097656 11.203126 0l17.363281 17.359375c3.09375 3.097656 3.09375 8.113282 0 11.207032zm0 0" fill="#ffe164"/><path d="m226.84375 106.851562v-.3125c0-4.378906 3.546875-7.925781 7.921875-7.925781h24.554687c4.375 0 7.925782 3.546875 7.925782 7.925781v.3125c0 4.375-3.550782 7.921876-7.925782 7.921876h-24.554687c-4.375 0-7.921875-3.546876-7.921875-7.921876zm0 0" fill="#ffdc85"/><path d="m70.621094 106.851562v-.3125c0-4.378906 3.550781-7.925781 7.925781-7.925781h24.554687c4.375 0 7.921876 3.546875 7.921876 7.925781v.3125c0 4.375-3.546876 7.921876-7.921876 7.921876h-24.558593c-4.375 0-7.921875-3.546876-7.921875-7.921876zm0 0" fill="#ffe164"/><path d="m196.828125 233.625h-53.355469c-1.628906 0-2.949218-1.324219-2.949218-2.953125v-10.257813c0-1.628906 1.320312-2.949218 2.949218-2.949218h53.355469c1.628906 0 2.949219 1.320312 2.949219 2.949218v10.257813c0 1.628906-1.320313 2.953125-2.949219 2.953125zm0 0" fill="#6bdddd"/><path d="m192.417969 249.785156h-43.191407c-2.574218 0-4.667968-2.089844-4.667968-4.667968v-11.496094h52.523437v11.496094c.003907 2.578124-2.085937 4.667968-4.664062 4.667968zm0 0" fill="#6bdddd"/><path d="m175.535156 271.332031h-10.773437c-8.925781 0-16.160157-7.238281-16.160157-16.160156v-5.386719h43.097657v5.386719c-.003907 8.921875-7.238281 16.160156-16.164063 16.160156zm0 0" fill="#6bdddd"/><g fill="#3762cc"><path d="m196.828125 237.625h-53.355469c-3.832031 0-6.949218-3.121094-6.949218-6.953125v-10.261719c0-3.832031 3.117187-6.949218 6.949218-6.949218h53.355469c3.832031 0 6.949219 3.117187 6.949219 6.949218v10.261719c0 3.832031-3.117188 6.953125-6.949219 6.953125zm-52.304687-8h51.253906v-8.160156h-51.253906zm0 0"/><path d="m192.417969 253.785156h-43.191407c-4.777343 0-8.667968-3.886718-8.667968-8.664062v-11.496094c0-2.210938 1.792968-4 4-4h52.523437c2.207031 0 4 1.789062 4 4v11.496094c.003907 4.773437-3.882812 8.664062-8.664062 8.664062zm-43.855469-16.160156v7.496094c0 .363281.296875.664062.664062.664062h43.195313c.363281 0 .664063-.300781.664063-.664062v-7.496094zm0 0"/><path d="m175.535156 275.332031h-10.773437c-11.117188 0-20.160157-9.042969-20.160157-20.164062v-5.382813c0-2.210937 1.792969-4 4-4h43.097657c2.207031 0 4 1.789063 4 4v5.382813c0 11.121093-9.042969 20.164062-20.164063 20.164062zm-22.933594-21.546875v1.382813c0 6.710937 5.457032 12.164062 12.160157 12.164062h10.773437c6.707032 0 12.164063-5.457031 12.164063-12.164062v-1.382813zm0 0"/><path d="m195.804688 221.460938h-51.308594c-1.089844 0-2.136719-.445313-2.890625-1.234376-.753907-.789062-1.15625-1.847656-1.105469-2.9375.035156-.839843.0625-1.675781.0625-2.523437 0-13.328125-4.738281-26.28125-13.347656-36.472656-.171875-.207031-.324219-.421875-.449219-.648438-9.347656-10.582031-14.484375-24.140625-14.484375-38.292969 0-31.90625 25.960938-57.871093 57.871094-57.871093 31.90625 0 57.867187 25.960937 57.867187 57.871093 0 14.152344-5.136719 27.707032-14.484375 38.292969-.125.226563-.273437.445313-.449218.648438-8.609376 10.191406-13.347657 23.144531-13.347657 36.472656 0 .847656.027344 1.683594.0625 2.523437.050781 1.089844-.351562 2.148438-1.105469 2.9375-.753906.789063-1.800781 1.234376-2.890624 1.234376zm-47.257813-8h43.207031c.289063-14.417969 5.4375-28.382813 14.578125-39.558594.15625-.316406.359375-.617188.609375-.890625 8.433594-9.210938 13.078125-21.167969 13.078125-33.660157 0-27.5-22.371093-49.871093-49.867187-49.871093-27.5 0-49.871094 22.371093-49.871094 49.871093 0 12.492188 4.644531 24.449219 13.078125 33.660157.257813.28125.46875.589843.632813.921875 9.128906 11.171875 14.261718 25.121094 14.554687 39.527344zm0 0"/></g><path d="m170.886719 197.085938c-7.335938 0-12.453125-7.882813-7.554688-15.847657.144531-.234375.34375-.453125.566407-.617187 7.875-5.847656 16.347656-.628906 16.347656 6.976562 0 5.328125-4.160156 9.488282-9.359375 9.488282zm-6.261719-91.230469h11.617188c1.125 0 2.027343.929687 2 2.054687l-1.582032 59.03125c-.03125 1.082032-.917968 1.945313-2 1.945313h-8.453125c-1.085937 0-1.96875-.863281-2-1.945313l-1.582031-59.03125c-.027344-1.125.875-2.054687 2-2.054687zm0 0" fill="#f9a7a7"/></svg>